<svg width="16" height="16" viewBox="0 0 16 16" fill="none" xmlns="http://www.w3.org/2000/svg">
<path d="M11.3339 13.3332H4.00057C3.64695 13.3332 3.30781 13.1927 3.05776 12.9426C2.80771 12.6926 2.66724 12.3535 2.66724 11.9998V4.6665C2.66724 4.31288 2.80771 3.97374 3.05776 3.72369C3.30781 3.47365 3.64695 3.33317 4.00057 3.33317H6.66724V4.6665H4.00057V11.9998H11.3339V9.33317H12.6672V11.9998C12.6672 12.3535 12.5268 12.6926 12.2767 12.9426C12.0267 13.1927 11.6875 13.3332 11.3339 13.3332ZM7.80057 9.13784L6.86057 8.19517L11.0559 3.99984H8.66724V2.6665H13.3339V7.33317H12.0006V4.94317L7.80057 9.13784Z" fill="#3D65FD"/>
</svg>
