<svg width="116" height="24" viewBox="0 0 116 24" fill="none" xmlns="http://www.w3.org/2000/svg">
<path d="M7.15009 0.857422C7.81441 0.857422 8.45625 0.947772 9.07551 1.11719C9.69483 1.2866 10.2804 1.53507 10.8208 1.85131C11.3613 2.16754 11.8567 2.55154 12.3071 2.99201C12.7575 3.43248 13.1404 3.92942 13.4669 4.47154C13.7934 5.01366 14.0412 5.60094 14.2213 6.23344C14.4015 6.86587 14.4915 7.52096 14.4915 8.19859C14.4915 8.7746 14.424 9.33931 14.3001 9.88144C14.1763 10.4236 13.9848 10.9431 13.7371 11.4287C13.4894 11.9144 13.1966 12.3661 12.8589 12.7953C12.5211 13.2132 12.1382 13.5972 11.7216 13.9247L13.9848 18.4424C14.0299 18.5214 14.0637 18.6005 14.1087 18.6908C14.1538 18.7812 14.1763 18.8602 14.1875 18.928C14.1875 19.0523 14.1425 19.1539 14.0524 19.2217C13.9623 19.2894 13.8497 19.3233 13.7033 19.3233H11.0572C10.7533 19.3233 10.5393 19.1652 10.438 18.8489L8.71517 15.3252C8.46746 15.393 8.20848 15.4494 7.9495 15.4833C7.69052 15.5285 7.42028 15.5511 7.15009 15.5511H3.41177V18.7925C3.41177 19.1539 3.22034 19.3233 2.83751 19.3233H0.540478C0.180159 19.3233 0 19.1426 0 18.7925V1.44472C0 1.04942 0.180159 0.857422 0.540478 0.857422H7.15009ZM11.1811 8.17599C11.1811 7.64517 11.091 7.13694 10.8996 6.64C10.7082 6.15436 10.4492 5.71391 10.1227 5.3186C9.79614 4.92331 9.40207 4.60707 8.94042 4.3473C8.47872 4.08754 7.98329 3.92942 7.45407 3.86166C7.22888 3.82778 7.00368 3.80519 6.77849 3.7826C6.5533 3.7713 6.31685 3.76001 6.08039 3.76001H3.42302V12.5582H6.99242C7.58922 12.5582 8.14096 12.4452 8.65892 12.2193C9.17687 11.9934 9.61599 11.6885 9.9876 11.2932C10.3591 10.8979 10.6519 10.4349 10.8658 9.90403C11.0798 9.3845 11.1811 8.79719 11.1811 8.17599Z" fill="#1A1F36"/>
<path d="M25.5039 3C20.2502 3 16 7.25977 16 12.5C16 17.7402 20.2615 22 25.5039 22C30.7462 22 35.0078 17.7402 35.0078 12.5C35.0078 7.25977 30.7575 3 25.5039 3ZM30.8928 17.8416C30.2164 18.5178 29.4046 19.0474 28.4915 19.4418C27.567 19.8363 26.5862 20.0278 25.549 20.0278C24.4892 20.0278 23.4971 19.8363 22.5726 19.4418C21.6482 19.0474 20.8478 18.5178 20.1601 17.8416C19.4836 17.1655 18.9424 16.3653 18.5479 15.4526C18.1533 14.5397 17.9504 13.5593 17.9504 12.5113C17.9504 11.4632 18.1533 10.4828 18.5479 9.56996C18.9424 8.65718 19.4836 7.86833 20.1601 7.19214C20.8365 6.51601 21.6482 5.99762 22.5726 5.60317C23.4971 5.22005 24.4892 5.0172 25.549 5.0172C26.5862 5.0172 27.567 5.20877 28.4915 5.60317C29.4159 5.98635 30.2164 6.51601 30.8928 7.19214C31.5692 7.86833 32.1104 8.65718 32.505 9.56996C32.8996 10.4828 33.1025 11.4632 33.1025 12.5113C33.1025 13.5593 32.8996 14.5397 32.505 15.4526C32.1104 16.3653 31.5805 17.1655 30.8928 17.8416Z" fill="#3D65FD"/>
<path d="M25.5042 6.48193C22.1784 6.48193 19.4839 9.17525 19.4839 12.4997C19.4839 15.8241 22.1784 18.5175 25.5042 18.5175C28.8299 18.5175 31.5244 15.8241 31.5244 12.4997C31.5244 9.17525 28.8299 6.48193 25.5042 6.48193ZM25.5042 16.7369C23.1705 16.7369 21.2764 14.8437 21.2764 12.5109C21.2764 10.1782 23.1705 8.28501 25.5042 8.28501C27.8379 8.28501 29.7319 10.1782 29.7319 12.5109C29.7319 14.8437 27.8379 16.7369 25.5042 16.7369Z" fill="#3D65FD"/>
<path d="M25.5606 14.8789C26.8931 14.8789 27.9732 13.7992 27.9732 12.4673C27.9732 11.1354 26.8931 10.0557 25.5606 10.0557C24.2282 10.0557 23.1479 11.1354 23.1479 12.4673C23.1479 13.7992 24.2282 14.8789 25.5606 14.8789Z" fill="#3D65FD"/>
<path d="M40.3108 18.6468C40.3108 18.8614 40.2433 19.0308 40.1194 19.155C39.9956 19.2793 39.8154 19.3357 39.6015 19.3357H37.6198C37.1693 19.3357 36.9329 19.1098 36.9329 18.6468V1.54747C36.9329 1.34418 36.9892 1.17477 37.1131 1.03924C37.2369 0.903706 37.4058 0.835938 37.6198 0.835938H39.6015C39.7591 0.835938 39.9168 0.903706 40.0744 1.02794C40.2321 1.15217 40.3108 1.33288 40.3108 1.54747V18.6468Z" fill="#1A1F36"/>
<path d="M47.3033 18.6468C47.3033 18.8614 47.2358 19.0308 47.1119 19.155C46.988 19.2793 46.8078 19.3357 46.5939 19.3357H44.6122C44.1617 19.3357 43.9253 19.1098 43.9253 18.6468V1.54747C43.9253 1.34418 43.9816 1.17477 44.1055 1.03924C44.2293 0.903706 44.3982 0.835938 44.6122 0.835938H46.5939C46.7515 0.835938 46.9092 0.903706 47.0668 1.02794C47.2245 1.15217 47.3033 1.33288 47.3033 1.54747V18.6468Z" fill="#1A1F36"/>
<path d="M56.2315 16.6582C56.5914 16.6582 56.9633 16.5905 57.3572 16.4662C57.7511 16.342 58.123 16.1387 58.4834 15.8789C58.5961 15.8112 58.6971 15.7547 58.7872 15.7095C58.8773 15.6643 58.9674 15.6305 59.0801 15.6305C59.1702 15.6305 59.2603 15.653 59.3388 15.6982C59.4179 15.7434 59.4965 15.8112 59.5756 15.9241L60.4986 17.1777C60.6112 17.3133 60.6562 17.4601 60.6562 17.6183C60.6562 17.7538 60.6112 17.878 60.5326 17.9909C60.4535 18.1039 60.3409 18.2055 60.2173 18.3072C59.9585 18.5105 59.6767 18.6799 59.3613 18.838C59.046 18.9961 58.7197 19.1317 58.3708 19.2446C58.0214 19.3575 57.6725 19.4366 57.3122 19.5043C56.9518 19.5608 56.6029 19.5947 56.254 19.5947C55.4091 19.5947 54.6211 19.4253 53.8779 19.0978C53.146 18.7702 52.493 18.3185 51.9412 17.7538C51.3895 17.189 50.9503 16.5227 50.6351 15.7547C50.3198 14.9867 50.1621 14.1622 50.1621 13.27C50.1621 12.4117 50.3085 11.5985 50.6125 10.8418C50.9166 10.0738 51.3332 9.4074 51.8624 8.82009C52.3916 8.24414 53.0222 7.79233 53.7541 7.45355C54.4747 7.11471 55.263 6.94531 56.1074 6.94531C56.9067 6.94531 57.65 7.09211 58.3483 7.39706C59.046 7.70201 59.6657 8.10858 60.1948 8.6394C60.7238 9.15893 61.1408 9.78013 61.4446 10.4916C61.7484 11.2032 61.9061 11.9712 61.9061 12.7956V12.8747C61.9061 13.191 61.8726 13.4507 61.7935 13.654C61.7149 13.8573 61.6023 14.0154 61.4561 14.1283C61.2985 14.2413 61.1067 14.3203 60.8815 14.3655C60.6562 14.4107 60.3859 14.4333 60.0821 14.4333H53.4838C53.5626 14.7834 53.6978 15.0996 53.8892 15.3707C54.0806 15.653 54.2946 15.8789 54.5423 16.071C54.79 16.2629 55.0602 16.4097 55.3531 16.5114C55.6343 16.6018 55.9272 16.6582 56.2315 16.6582ZM58.7197 11.9373C58.6636 11.6437 58.551 11.3726 58.3933 11.1128C58.2357 10.8531 58.0439 10.6384 57.8077 10.4465C57.5715 10.2545 57.3122 10.1076 57.0309 10.006C56.738 9.89304 56.4337 9.84785 56.1074 9.84785C55.8145 9.84785 55.5333 9.89304 55.2514 9.99471C54.9701 10.0851 54.7224 10.2319 54.486 10.4013C54.2495 10.582 54.0581 10.7966 53.8892 11.0564C53.7203 11.3161 53.6077 11.6098 53.5402 11.9373H58.7197Z" fill="#1A1F36"/>
<path d="M64.0574 7.88249C64.0574 7.63397 64.1475 7.45328 64.3162 7.34037C64.4854 7.22741 64.6541 7.17092 64.8343 7.17092H66.1857C66.3544 7.17092 66.478 7.21611 66.5796 7.31778C66.6807 7.4081 66.7708 7.53236 66.8384 7.69045C66.9175 7.8486 66.9851 8.018 67.0527 8.22128C67.1202 8.42456 67.2103 8.63919 67.3114 8.85377C67.4466 8.6053 67.5817 8.36813 67.7394 8.14226C67.8971 7.91633 68.0657 7.72434 68.2684 7.54365C68.4712 7.36296 68.6854 7.22741 68.9442 7.13703C69.2029 7.04672 69.4848 6.99023 69.8111 6.99023C70.16 6.99023 70.4643 7.01283 70.7121 7.05801C70.9709 7.10314 71.2076 7.17092 71.4329 7.2613C71.6576 7.35167 71.8828 7.47587 72.1081 7.61143C72.3333 7.75823 72.5811 7.92762 72.8624 8.14226C73.1327 8.28906 73.2568 8.46975 73.2568 8.71821C73.2568 8.86507 73.2118 9.03446 73.1101 9.20385L72.2432 10.5705C72.1306 10.7737 71.9619 10.9206 71.7592 10.9884C71.5565 11.0561 71.3538 11.0109 71.1736 10.8415C71.0274 10.706 70.8808 10.6043 70.7571 10.514C70.633 10.435 70.4978 10.3672 70.3742 10.322C70.2501 10.2768 70.1155 10.2429 69.9688 10.2316C69.8226 10.2204 69.676 10.2091 69.4958 10.2091C69.248 10.2091 69.0343 10.2429 68.8431 10.3107C68.6514 10.3785 68.4827 10.4801 68.325 10.6043C68.1674 10.7286 68.0207 10.8867 67.8855 11.0674C67.7504 11.2481 67.6152 11.4401 67.4916 11.6547V18.5893C67.4916 18.8265 67.4356 19.0072 67.3114 19.1427C67.1878 19.2669 66.9961 19.3347 66.7258 19.3347H64.7892C64.553 19.3347 64.3612 19.2669 64.2376 19.1427C64.1135 19.0185 64.0459 18.8378 64.0459 18.5893V7.88249H64.0574Z" fill="#1A1F36"/>
<path d="M81.5789 0.293648C81.6239 0.21459 81.68 0.146826 81.7475 0.0903555C81.8267 0.0225908 81.9277 0 82.0744 0C82.198 0 82.2997 0.0338818 82.3898 0.101647C82.4683 0.169411 82.5359 0.248471 82.5925 0.338824C82.6485 0.429177 82.6936 0.519534 82.7276 0.598593C82.7611 0.677652 82.7952 0.745415 82.8177 0.768002L83.0314 1.26494C84.2923 4.19012 85.5311 7.09271 86.7585 9.98401C87.9858 12.8753 89.2246 15.7779 90.4745 18.7031C90.4855 18.7257 90.497 18.7708 90.508 18.816C90.5195 18.8725 90.5305 18.9177 90.5305 18.9516C90.5305 19.2 90.3618 19.3242 90.035 19.3242H87.5803C87.2425 19.3242 87.0172 19.1661 86.8936 18.8499L86.1843 17.0202H77.953L75.2846 23.5031C75.1604 23.8306 74.9242 24 74.5863 24H72.1432C71.963 24 71.8279 23.9661 71.7603 23.8984C71.6812 23.8306 71.6477 23.7402 71.6477 23.6273C71.6477 23.5821 71.6587 23.5257 71.6702 23.4805C71.6812 23.4353 71.6928 23.3902 71.7153 23.345C72.9536 20.4198 76.1741 12.8527 77.4014 9.96141C78.6287 7.08141 79.8785 4.17883 81.1399 1.26494C81.2075 1.09553 81.2751 0.937417 81.3536 0.768002C81.4102 0.621181 81.4888 0.451766 81.5789 0.293648ZM82.0854 6.29082C82.0294 6.44897 81.9728 6.60707 81.9167 6.76516C81.8602 6.92332 81.8041 7.08141 81.7475 7.2508L79.0001 14.1854H85.1372L82.4233 7.2508C82.3782 7.09271 82.3222 6.93461 82.2656 6.77646C82.198 6.60707 82.142 6.44897 82.0854 6.29082Z" fill="#1A1F36"/>
<path d="M104.189 18.6016C104.189 18.8162 104.132 18.9856 104.008 19.1211C103.884 19.2454 103.716 19.3244 103.49 19.3357H102.274C102.139 19.3357 102.015 19.3357 101.903 19.3244C101.79 19.3131 101.688 19.2906 101.587 19.2454C101.497 19.2002 101.407 19.1437 101.339 19.0533C101.272 18.9743 101.216 18.8501 101.171 18.692L101.036 17.9804C100.619 18.5 100.157 18.8952 99.6507 19.1663C99.1436 19.4374 98.5135 19.5616 97.7811 19.5616C96.9593 19.5616 96.194 19.3922 95.4957 19.0646C94.7865 18.7371 94.1783 18.2853 93.6492 17.7094C93.1312 17.1334 92.7257 16.467 92.4219 15.7103C92.1291 14.9423 91.9824 14.1291 91.9824 13.2595C91.9824 12.3785 92.1291 11.5541 92.4219 10.7861C92.7142 10.0181 93.1196 9.35173 93.6377 8.78702C94.1558 8.2223 94.7749 7.77055 95.4957 7.44301C96.2165 7.11546 96.9933 6.94607 97.8377 6.94607C98.4684 6.94607 99.031 7.07028 99.5155 7.33004C100.011 7.57851 100.416 7.88346 100.743 8.2223V1.57006C100.743 1.35547 100.81 1.17477 100.946 1.03924C101.081 0.903706 101.272 0.835938 101.52 0.835938H103.389C103.603 0.835938 103.794 0.903706 103.952 1.03924C104.109 1.17477 104.2 1.35547 104.2 1.57006V18.6016H104.189ZM101.069 13.3385C101.069 12.8981 100.991 12.4915 100.844 12.1075C100.698 11.7235 100.495 11.396 100.236 11.1023C99.977 10.8199 99.6842 10.5941 99.3353 10.4247C98.9865 10.2552 98.6261 10.1762 98.2542 10.1762C97.8712 10.1762 97.5114 10.2552 97.1845 10.4247C96.8466 10.5941 96.5538 10.8199 96.3066 11.1023C96.0588 11.3847 95.8561 11.7122 95.7094 12.0962C95.5633 12.4689 95.4957 12.8755 95.4957 13.3047C95.4957 13.7225 95.5633 14.1291 95.7094 14.5018C95.8561 14.8745 96.0473 15.2021 96.3066 15.4844C96.5538 15.7668 96.8466 15.9813 97.1845 16.1395C97.5224 16.2976 97.8828 16.388 98.2542 16.388C98.6371 16.388 98.9975 16.3089 99.3353 16.1395C99.6732 15.9813 99.977 15.7555 100.225 15.4844C100.484 15.2134 100.686 14.8858 100.844 14.5244C100.991 14.1517 101.069 13.7564 101.069 13.3385Z" fill="#1A1F36"/>
<path d="M106.779 17.6422C106.678 17.5293 106.599 17.4163 106.542 17.3147C106.486 17.2131 106.452 17.0775 106.452 16.9194C106.452 16.8516 106.464 16.7726 106.486 16.6822C106.509 16.5919 106.599 16.4789 106.779 16.3547L108.085 15.2704H108.074C108.04 15.2704 108.04 15.2592 108.063 15.2479C108.085 15.2366 108.119 15.2253 108.164 15.214C108.209 15.2027 108.254 15.1914 108.31 15.1801C108.355 15.1688 108.4 15.1575 108.423 15.1575C108.536 15.1575 108.637 15.1914 108.738 15.2704C108.828 15.3495 108.907 15.4398 108.986 15.5415C109.121 15.7448 109.279 15.9029 109.481 16.0384C109.684 16.1627 109.887 16.2756 110.101 16.3547C110.315 16.4338 110.529 16.4902 110.731 16.5241C110.934 16.558 111.114 16.5693 111.261 16.5693C111.396 16.5693 111.553 16.5467 111.722 16.5128C111.891 16.4789 112.048 16.4225 112.195 16.3434C112.341 16.2643 112.465 16.174 112.566 16.0723C112.668 15.9594 112.713 15.8352 112.713 15.6883C112.713 15.5302 112.657 15.3947 112.555 15.2704C112.443 15.1462 112.308 15.0333 112.116 14.9316C111.936 14.83 111.722 14.7396 111.486 14.6493C111.249 14.5589 110.99 14.4799 110.72 14.4121C109.414 14.0394 108.423 13.5199 107.736 12.8648C107.061 12.2098 106.723 11.4079 106.723 10.4478C106.723 9.91701 106.835 9.43137 107.061 9.00221C107.286 8.56176 107.601 8.18903 108.007 7.87278C108.411 7.55659 108.885 7.30812 109.436 7.13867C109.988 6.96928 110.596 6.87891 111.261 6.87891C112.961 6.87891 114.323 7.54529 115.37 8.86671C115.416 8.93443 115.461 9.00221 115.472 9.06999C115.494 9.13777 115.506 9.20549 115.506 9.25068C115.494 9.36364 115.461 9.44266 115.404 9.51044C115.359 9.57822 115.269 9.6573 115.156 9.74761H115.168L115.134 9.7815L115.111 9.8041L114.999 9.9396L114.661 10.222C114.447 10.4027 114.267 10.5608 114.121 10.6964C113.974 10.8319 113.828 10.8996 113.681 10.8883C113.546 10.8883 113.433 10.8545 113.355 10.798C113.276 10.7302 113.197 10.6512 113.107 10.5608C112.994 10.4365 112.871 10.3236 112.724 10.2107C112.578 10.0977 112.42 10.0074 112.263 9.91706C112.105 9.82669 111.936 9.75891 111.767 9.71372C111.598 9.66854 111.441 9.6347 111.294 9.6347C110.979 9.6347 110.731 9.66854 110.551 9.74761C110.371 9.82669 110.236 9.91706 110.134 10.0187C110.044 10.1203 109.977 10.2333 109.943 10.3462C109.909 10.4591 109.898 10.5495 109.898 10.6173C109.898 10.7867 109.943 10.9222 110.044 11.0351C110.146 11.1481 110.269 11.2497 110.427 11.3288C110.585 11.4079 110.753 11.4756 110.945 11.5321C111.136 11.5886 111.317 11.6337 111.486 11.6902L111.7 11.758C112.33 11.9274 112.904 12.1307 113.433 12.3566C113.963 12.5824 114.413 12.8535 114.796 13.1584C115.179 13.4747 115.472 13.8361 115.686 14.254C115.9 14.6718 116.001 15.1688 116.001 15.7335C116.001 16.3434 115.877 16.8855 115.618 17.3599C115.359 17.8342 115.01 18.2408 114.56 18.5683C114.109 18.8959 113.591 19.1443 112.983 19.325C112.375 19.4945 111.734 19.5848 111.035 19.5848C110.641 19.5848 110.236 19.5509 109.842 19.4719C109.436 19.3928 109.054 19.2686 108.682 19.1104C108.31 18.9523 107.962 18.7491 107.635 18.5119C107.331 18.2521 107.038 17.9698 106.779 17.6422Z" fill="#1A1F36"/>
</svg>
